<svg id="visual" viewBox="0 0 900 600" width="900" height="600" xmlns="http://www.w3.org/2000/svg" xmlns:xlink="http://www.w3.org/1999/xlink" version="1.1"><rect x="0" y="0" width="900" height="600" fill="#26353e"></rect><defs><linearGradient id="grad1_0" x1="33.3%" y1="0%" x2="100%" y2="100%"><stop offset="20%" stop-color="#26353e" stop-opacity="1"></stop><stop offset="80%" stop-color="#26353e" stop-opacity="1"></stop></linearGradient></defs><defs><linearGradient id="grad2_0" x1="0%" y1="0%" x2="66.7%" y2="100%"><stop offset="20%" stop-color="#26353e" stop-opacity="1"></stop><stop offset="80%" stop-color="#26353e" stop-opacity="1"></stop></linearGradient></defs><g transform="translate(900, 0)"><path d="M0 270.4C-36.1 244.4 -72.2 218.5 -115 199.2C-157.8 179.9 -207.2 167.3 -234.2 135.2C-261.2 103.1 -265.8 51.6 -270.4 0L0 0Z" fill="#e25c48"></path></g><g transform="translate(0, 600)"><path d="M0 -270.4C43.1 -256.5 86.1 -242.5 128 -221.7C169.9 -200.9 210.6 -173.3 234.2 -135.2C257.7 -97.1 264.1 -48.6 270.4 0L0 0Z" fill="#e25c48"></path></g></svg>